<?xml version="1.0" encoding="UTF-8" standalone="no"?>
<!-- Created with Inkscape (http://www.inkscape.org/) -->

<svg
   width="512mm"
   height="512mm"
   viewBox="0 0 512 512"
   version="1.1"
   id="svg1"
   inkscape:version="1.3 (0e150ed6c4, 2023-07-21)"
   sodipodi:docname="logo.svg"
   xml:space="preserve"
   inkscape:export-filename="logo.png"
   inkscape:export-xdpi="25.4"
   inkscape:export-ydpi="25.4"
   xmlns:inkscape="http://www.inkscape.org/namespaces/inkscape"
   xmlns:sodipodi="http://sodipodi.sourceforge.net/DTD/sodipodi-0.dtd"
   xmlns="http://www.w3.org/2000/svg"
   xmlns:svg="http://www.w3.org/2000/svg"><sodipodi:namedview
     id="namedview1"
     pagecolor="#ffffff"
     bordercolor="#000000"
     borderopacity="0.25"
     inkscape:showpageshadow="2"
     inkscape:pageopacity="0.0"
     inkscape:pagecheckerboard="0"
     inkscape:deskcolor="#d1d1d1"
     inkscape:document-units="mm"
     inkscape:zoom="0.2447271"
     inkscape:cx="764.11644"
     inkscape:cy="770.24571"
     inkscape:window-width="1920"
     inkscape:window-height="991"
     inkscape:window-x="-9"
     inkscape:window-y="-9"
     inkscape:window-maximized="1"
     inkscape:current-layer="layer1" /><defs
     id="defs1" /><g
     inkscape:label="Layer 1"
     inkscape:groupmode="layer"
     id="layer1"><path
       id="path1-3"
       style="fill:#000000;stroke-width:2.93684;stroke-linejoin:round;paint-order:stroke fill markers"
       d="M 109.72165,-3.7543472e-6 C 122.26157,6.7391372 191.47493,122.90559 278.78492,261.57686 c 1.70462,12.31593 -0.80073,31.97559 -5.23505,47.39855 4.92143,27.07562 11.07898,55.77457 17.59605,86.04147 l -0.52809,0.18252 a 61.266109,50.251984 60 0 1 59.55229,32.9678 61.266109,50.251984 60 0 1 -12.88624,78.18423 61.266109,50.251984 60 0 1 -74.1526,-27.9323 61.266109,50.251984 60 0 1 1.86657,-68.95566 61.266109,50.251984 60 0 1 11.02008,-9.22816 C 270.75451,365.19881 264.3412,328.30161 252.3432,300.34632 197.40934,207.6054 153.44485,100.73328 105.48397,4.2376783 Z M 275.67196,420.69487 a 45.566477,37.374758 60 0 0 -1.38836,51.2858 45.566477,37.374758 60 0 0 55.15034,20.77431 45.566477,37.374758 60 0 0 9.58428,-58.14892 45.566477,37.374758 60 0 0 -55.15075,-20.77471 45.566477,37.374758 60 0 0 -8.19551,6.86352 z" /><path
       id="path1"
       style="fill:#000000;stroke-width:2.93684;stroke-linejoin:round;paint-order:stroke fill markers"
       d="M 3.7606272e-6,109.72164 C 6.7391447,122.26156 122.9056,191.47492 261.57687,278.78492 c 12.31593,1.70461 31.97559,-0.80074 47.39855,-5.23506 27.07561,4.92143 55.77457,11.07898 86.04147,17.59605 l 0.18252,-0.52809 a 61.266109,50.251984 30 0 0 32.9678,59.55229 61.266109,50.251984 30 0 0 78.18423,-12.88624 61.266109,50.251984 30 0 0 -27.9323,-74.1526 61.266109,50.251984 30 0 0 -68.95567,1.86657 61.266109,50.251984 30 0 0 -9.22815,11.02008 C 365.19882,270.7545 328.30162,264.34119 300.34633,252.34319 207.60541,197.40933 100.73329,153.44484 4.2376859,105.48396 Z M 420.69488,275.67195 a 45.566477,37.374758 30 0 1 51.2858,-1.38836 45.566477,37.374758 30 0 1 20.77431,55.15034 45.566477,37.374758 30 0 1 -58.14892,9.58428 45.566477,37.374758 30 0 1 -20.77471,-55.15075 45.566477,37.374758 30 0 1 6.86352,-8.19551 z" /><circle
       style="fill:#ffffff;stroke-width:2.31336;stroke-linejoin:round;paint-order:stroke fill markers"
       id="path2"
       cx="0.76343614"
       cy="342.54947"
       r="11.099873"
       transform="rotate(-45)" /></g></svg>
